HIERARCHY
ROOT Pelvis
{
	OFFSET 0.000000 0.000000 0.000000
	CHANNELS 6 Xposition Yposition Zposition Xrotation Yrotation Zrotation
	JOINT LeftUpLeg_virtual
	{
		OFFSET 0.000000 0.000000 0.000000
		CHANNELS 3 Xrotation Yrotation Zrotation
		JOINT LeftUpLeg
		{
			OFFSET 18.735201 -5.666702 -4.541200
			CHANNELS 3 Xrotation Yrotation Zrotation
			JOINT LeftLeg
			{
				OFFSET -0.021200 -31.938179 0.493100
				CHANNELS 3 Xrotation Yrotation Zrotation
				JOINT LeftFoot
				{
					OFFSET 0.021200 -31.938179 -4.336299
					CHANNELS 3 Xrotation Yrotation Zrotation
					JOINT LeftToeBase
					{
						OFFSET 0.943001 -26.722000 15.023500
						CHANNELS 3 Xrotation Yrotation Zrotation
						End Site
						{
							OFFSET 0 0 0
						}
					}
				}
			}
		}
	}
	JOINT RightUpLeg_virtual
	{
		OFFSET 0.000000 0.000000 0.000000
		CHANNELS 3 Xrotation Yrotation Zrotation
		JOINT RightUpLeg
		{
			OFFSET -18.735201 -5.666702 -4.541200
			CHANNELS 3 Xrotation Yrotation Zrotation
			JOINT RightLeg
			{
				OFFSET 0.018946 -31.938133 0.493100
				CHANNELS 3 Xrotation Yrotation Zrotation
				JOINT RightFoot
				{
					OFFSET -0.018946 -31.938126 -4.336299
					CHANNELS 3 Xrotation Yrotation Zrotation
					JOINT RightToeBase
					{
						OFFSET -0.943001 -26.722004 15.023500
						CHANNELS 3 Xrotation Yrotation Zrotation
						End Site
						{
							OFFSET 0 0 0
						}
					}
				}
			}
		}
	}
	JOINT Hips_virtual
	{
		OFFSET 0.000000 0.000000 0.000000
		CHANNELS 3 Xrotation Yrotation Zrotation
		JOINT Hips
		{
			OFFSET -0.000000 -0.000000 -0.000000
			CHANNELS 3 Xrotation Yrotation Zrotation
			JOINT Spine
			{
				OFFSET 0.000000 10.199997 -0.299500
				CHANNELS 3 Xrotation Yrotation Zrotation
				JOINT Spine1
				{
					OFFSET 0.000000 11.900002 -1.516600
					CHANNELS 3 Xrotation Yrotation Zrotation
					JOINT Spine2
					{
						OFFSET 0.000000 13.600006 -2.842500
						CHANNELS 3 Xrotation Yrotation Zrotation
						JOINT Neck_virtual
						{
							OFFSET 0.000000 0.000000 0.000000
							CHANNELS 3 Xrotation Yrotation Zrotation
							JOINT Neck
							{
								OFFSET 0.000000 9.624100 -2.890100
								CHANNELS 3 Xrotation Yrotation Zrotation
								JOINT Head
								{
									OFFSET 0.000000 14.068802 -1.351900
									CHANNELS 3 Xrotation Yrotation Zrotation
									End Site
									{
										OFFSET 0 0 0
									}
								}
							}
						}
						JOINT LeftShoulder_virtual
						{
							OFFSET 0.000000 0.000000 0.000000
							CHANNELS 3 Xrotation Yrotation Zrotation
							JOINT LeftShoulder
							{
								OFFSET 15.263000 10.923401 -0.547700
								CHANNELS 3 Xrotation Yrotation Zrotation
								JOINT LeftArm
								{
									OFFSET 25.438599 -2.830597 -13.032500
									CHANNELS 3 Xrotation Yrotation Zrotation
									JOINT LeftForeArm
									{
										OFFSET 29.960503 0.000000 0.000000
										CHANNELS 3 Xrotation Yrotation Zrotation
										JOINT LeftHand
										{
											OFFSET 27.849251 0.000000 0.000000
											CHANNELS 3 Xrotation Yrotation Zrotation
											End Site
											{
												OFFSET 0 0 0
											}
										}
									}
								}
							}
						}
						JOINT RightShoulder_virtual
						{
							OFFSET 0.000000 0.000000 0.000000
							CHANNELS 3 Xrotation Yrotation Zrotation
							JOINT RightShoulder
							{
								OFFSET -15.263000 10.923401 -0.547700
								CHANNELS 3 Xrotation Yrotation Zrotation
								JOINT RightArm
								{
									OFFSET -25.438599 -2.830597 -13.032500
									CHANNELS 3 Xrotation Yrotation Zrotation
									JOINT RightForeArm
									{
										OFFSET -29.960503 0.000000 0.000000
										CHANNELS 3 Xrotation Yrotation Zrotation
										JOINT RightHand
										{
											OFFSET -27.849251 0.000000 0.000000
											CHANNELS 3 Xrotation Yrotation Zrotation
											End Site
											{
												OFFSET 0 0 0
											}
										}
									}
								}
							}
						}
					}
				}
			}
		}
	}
}
MOTION
Frames: 5
Frame Time: 0.03333333
-4.978044 120.652435 10.069456 0.000000 0.000000 0.000000 4.381037 -36.843369 4.933718 -87.651667 -23.980589 26.629461 79.143451 0.521254 7.750815 3.057526 0.154804 -1.408450 0.000000 0.000000 0.000000 4.381037 -36.843369 4.933718 -136.564933 -40.997900 -10.050275 116.466583 17.084362 -14.934350 31.506351 4.477455 33.555046 0.000000 0.000000 0.000000 4.381037 -36.843369 4.933718 0.000000 -0.000004 0.000000 30.156614 -5.555785 -9.624363 12.785627 1.087592 -3.033124 0.000000 0.000000 0.000000 12.733218 1.050410 -3.241309 -1.987828 4.042631 -2.804583 0.000000 0.000000 0.000000 12.733218 1.050410 -3.241309 9.829639 -9.813822 -1.458548 -62.537731 12.081221 3.106151 46.615577 -25.819862 31.530100 0.000000 0.000000 0.000000 12.733218 1.050410 -3.241309 14.990500 20.897819 -4.160217 -28.001525 -11.258133 -3.541417 -45.194566 43.244004 34.197712 0.000000 0.000000 0.000000 
-5.050047 120.673752 10.172813 0.000000 0.000000 0.000000 4.313559 -36.537899 4.848368 -87.991859 -23.539224 25.969738 79.397083 2.421696 8.596620 2.934422 -0.620669 -0.009340 0.000000 0.000000 0.000000 4.313559 -36.537899 4.848368 -136.486782 -40.967970 -9.827928 116.324037 17.015487 -14.977254 32.433908 4.654817 34.026739 0.000000 0.000000 0.000000 4.313559 -36.537899 4.848368 0.000000 -0.000003 0.000000 30.157642 -5.654996 -9.611369 12.788150 1.087584 -3.033132 0.000000 0.000000 0.000000 12.735771 1.050413 -3.241317 -2.136356 4.022271 -2.828431 0.000000 0.000000 0.000000 12.735771 1.050413 -3.241317 9.984065 -9.728886 -0.757584 -62.955800 11.135337 3.775611 46.589219 -25.768444 31.469584 0.000000 0.000000 0.000000 12.735771 1.050413 -3.241317 15.302909 20.568548 -4.925037 -28.808297 -11.687216 -3.682300 -45.727867 43.802201 34.969223 0.000000 0.000000 0.000000 
-5.021711 120.680077 10.220270 0.000000 0.000000 0.000000 4.256381 -36.318254 4.727495 -88.053330 -23.575130 25.919178 79.428434 2.358216 8.548134 3.061211 -0.701373 0.211692 0.000000 0.000000 0.000000 4.256381 -36.318254 4.727495 -136.709132 -40.911774 -9.842279 116.475598 16.902215 -14.965180 32.610574 4.703056 34.164767 0.000000 0.000000 0.000000 4.256381 -36.318254 4.727495 0.000000 -0.000002 0.000000 30.158270 -5.664224 -9.600662 12.798051 1.087548 -3.033115 0.000000 0.000000 0.000000 12.745772 1.050443 -3.241319 -2.138937 4.024125 -2.821614 0.000000 0.000000 0.000000 12.745772 1.050443 -3.241319 10.133433 -9.721067 -0.028974 -63.361384 10.080291 4.356422 46.550027 -25.690314 31.376742 0.000000 0.000000 0.000000 12.745772 1.050443 -3.241319 15.618583 20.231678 -5.707899 -29.640132 -12.140666 -3.854863 -46.313785 44.391807 35.807813 0.000000 0.000000 0.000000 
-4.988374 120.682571 10.268274 0.000000 0.000000 0.000000 4.200470 -36.102205 4.604464 -88.143571 -23.651089 25.884021 79.449361 2.204865 8.459702 3.321234 -0.720384 0.390973 0.000000 0.000000 0.000000 4.200470 -36.102205 4.604464 -136.950238 -40.847014 -9.867293 116.624660 16.763774 -14.950099 32.804275 4.755604 34.311551 0.000000 0.000000 0.000000 4.200470 -36.102205 4.604464 0.000000 0.000002 0.000000 30.164103 -5.669657 -9.582711 12.814260 1.087513 -3.033103 0.000000 0.000000 0.000000 12.762086 1.050444 -3.241339 -2.130444 4.022900 -2.815143 0.000000 0.000000 0.000000 12.762086 1.050444 -3.241339 10.281093 -9.782280 0.722431 -63.758607 8.941655 4.845707 46.500263 -25.586442 31.254341 0.000000 0.000000 0.000000 12.762086 1.050444 -3.241339 15.932596 19.880778 -6.500312 -30.491054 -12.602412 -4.047632 -46.939621 44.997119 36.694877 0.000000 0.000000 0.000000 
-4.954470 120.688370 10.309330 0.000000 0.000000 0.000000 4.144843 -35.882508 4.483220 -88.251816 -23.716377 25.835802 79.505738 2.060480 8.369398 3.514175 -0.732108 0.614848 0.000000 0.000000 0.000000 4.144843 -35.882508 4.483220 -137.183503 -40.802792 -9.891741 116.759844 16.633285 -14.937724 33.022237 4.809246 34.419755 0.000000 0.000000 0.000000 4.144843 -35.882508 4.483220 0.000000 0.000000 0.000000 30.172265 -5.680691 -9.561833 12.836347 1.087549 -3.033107 0.000000 0.000000 0.000000 12.784351 1.050457 -3.241322 -2.123227 4.018108 -2.813758 0.000000 0.000000 0.000000 12.784351 1.050457 -3.241322 10.430025 -9.904269 1.491886 -64.152579 7.747712 5.238483 46.442431 -25.463691 31.110617 0.000000 0.000000 0.000000 12.784351 1.050457 -3.241322 16.239459 19.506950 -7.293205 -31.353403 -13.054803 -4.253629 -47.590873 45.600798 37.608220 0.000000 0.000000 0.000000 
